<svg width="47" height="26" viewBox="0 0 47 26" fill="none" xmlns="http://www.w3.org/2000/svg">
<mask id="mask0_2402_7622" style="mask-type:luminance" maskUnits="userSpaceOnUse" x="0" y="0" width="47" height="26">
<rect width="47" height="26" fill="white"/>
</mask>
<g mask="url(#mask0_2402_7622)">
<path fill-rule="evenodd" clip-rule="evenodd" d="M11.7538 20.23V4.14795C11.7538 4.03771 11.8403 3.95043 11.9496 3.95043H14.6408C14.7501 3.95043 14.8366 4.03771 14.8366 4.14795V20.23C14.8366 20.3403 14.7501 20.4276 14.6408 20.4276H11.9496C11.8403 20.4276 11.7538 20.3403 11.7538 20.23ZM5.17831 10.9464C4.06267 10.9464 3.33409 11.3231 3.33409 11.8468C3.33409 12.5667 4.3734 12.7921 5.64735 13.0682C7.66534 13.5058 10.2721 14.0709 10.2693 16.9319C10.2693 19.1046 8.45238 20.7215 5.20108 20.7215C3.26123 20.7215 1.38513 20.0968 0.141987 19.0449C0.037253 18.953 0.0144848 18.8014 0.087343 18.682L1.12102 16.9502C1.21209 16.7986 1.41245 16.7619 1.54906 16.8721C2.45979 17.6025 4.02624 18.1308 5.35135 18.1308C6.68557 18.1308 7.31397 17.6576 7.31397 17.1018C7.31397 16.2903 6.20679 16.0566 4.87546 15.7757C2.86822 15.352 0.351454 14.8208 0.351454 12.0397C0.351454 10.0553 2.07728 8.31891 5.15554 8.31891C7.03164 8.31891 8.54345 8.92986 9.66365 9.77967C9.77293 9.86235 9.80481 10.0185 9.73651 10.1426L8.83033 11.9662C8.73926 12.127 8.52524 12.1637 8.38863 12.0443C7.64638 11.4012 6.44878 10.9464 5.17831 10.9464ZM16.9722 8.51184V20.2208C16.9722 20.3311 17.0588 20.4184 17.168 20.4184H19.8592C19.9685 20.4184 20.055 20.3311 20.055 20.2208V8.51184C20.055 8.4016 19.9685 8.31432 19.8592 8.31432H17.168C17.0633 8.31891 16.9722 8.40619 16.9722 8.51184ZM30.2825 20.4184C30.1732 20.4184 30.0867 20.3311 30.0867 20.2208H30.0822V13.3672C30.0822 11.7273 29.0303 11.0705 27.7735 11.0705C26.2981 11.0705 25.2553 12.3612 25.2553 13.7944V20.2208C25.2553 20.3311 25.1688 20.4184 25.0595 20.4184H22.3683C22.259 20.4184 22.1725 20.3311 22.1725 20.2208V8.51184C22.1725 8.40159 22.259 8.31432 22.3683 8.31432H25.0595C25.1688 8.31432 25.2553 8.40159 25.2553 8.51184V10.1334C25.7198 9.26978 27.013 8.29594 28.9301 8.29594C31.5029 8.29594 33.1695 10.2574 33.1695 12.5588V20.2208C33.1695 20.3311 33.083 20.4184 32.9737 20.4184H30.2825ZM35.3507 23.519C35.3006 23.6017 35.3143 23.7074 35.3872 23.7717C36.8079 24.9844 38.3516 25.4254 40.3096 25.4254C43.1966 25.4254 46.6437 24.1162 46.6437 19.6099V8.78745C46.6437 8.67721 46.5572 8.58993 46.4479 8.58993H43.7294C43.6201 8.58993 43.5336 8.67721 43.5336 8.78745V10.1104C42.7732 8.86095 41.4617 8.30054 40.0546 8.30054C37.0948 8.30054 34.7451 10.8316 34.7451 14.6994C34.7451 17.9149 36.9809 20.7215 40.0546 20.7215C41.5072 20.7215 42.6092 20.0371 43.5336 18.8611V19.688C43.5336 22.0123 41.785 22.8851 40.3051 22.8851C38.9117 22.8851 37.7323 22.5176 36.8079 21.5943C36.7214 21.507 36.5711 21.5254 36.5073 21.6311L35.3507 23.519ZM37.9326 14.3595C37.9326 16.3898 39.1439 17.5795 40.8925 17.5795C42.4954 17.5795 43.5382 16.128 43.5382 14.3595C43.5382 12.5909 42.4908 11.0659 40.8925 11.0659C39.1485 11.0659 37.9326 12.3291 37.9326 14.3595Z" fill="#00B9FF"/>
<path fill-rule="evenodd" clip-rule="evenodd" d="M16.6661 3.62022C16.6752 2.57748 17.5222 1.74605 18.5559 1.75524C19.5895 1.76442 20.4137 2.61883 20.4046 3.66157C20.3955 4.67674 19.5485 5.53574 18.5149 5.52655C17.4812 5.51737 16.657 4.64 16.6661 3.62022Z" fill="#00B9FF"/>
<path fill-rule="evenodd" clip-rule="evenodd" d="M22.4631 5.65058C23.3966 5.43009 24.0978 4.61703 24.1115 3.63401V3.62022C24.1161 2.6372 23.433 1.80577 22.5041 1.5669C22.413 1.54393 22.3037 1.59905 22.3629 1.71389C22.7454 2.39374 22.8365 3.11493 22.8319 3.61563C22.8274 4.11174 22.7181 4.83293 22.3219 5.50359C22.2627 5.61383 22.3675 5.67355 22.4631 5.65058Z" fill="#00B9FF"/>
<path fill-rule="evenodd" clip-rule="evenodd" d="M25.993 6.4723C27.2999 6.16912 28.2744 5.02992 28.2972 3.65644V3.63807C28.3017 2.26459 27.35 1.10701 26.0522 0.77168C25.9202 0.739525 25.7699 0.817615 25.8564 0.973797C26.3892 1.92007 26.5213 2.93066 26.5121 3.62428C26.503 4.31791 26.3482 5.3285 25.7972 6.26099C25.7153 6.42177 25.861 6.50445 25.993 6.4723Z" fill="#00B9FF"/>
<path fill-rule="evenodd" clip-rule="evenodd" d="M29.7481 0.266387C30.422 1.46531 30.5905 2.74691 30.5814 3.62429C30.5723 4.50625 30.3765 5.77867 29.6752 6.96381C29.5659 7.15674 29.7526 7.31751 29.9166 7.28077C31.5695 6.89491 32.8081 5.3974 32.8354 3.66103V3.63807C32.8446 1.9017 31.6378 0.431756 29.994 0.0091476C29.8346 -0.0321945 29.6433 0.068864 29.7481 0.266387Z" fill="#00B9FF"/>
<path d="M45.3397 25.4254H45.499V24.8144H45.7131V24.672H45.1211V24.8144H45.3397V25.4254Z" fill="#00B9FF"/>
<path d="M46.3921 25.1268L46.4832 24.8879V25.4254H46.6426V24.6766H46.4195L46.2373 25.1451L46.0552 24.6766H45.832V25.4254H45.9914V24.8879L46.2009 25.4254H46.2692L46.3921 25.1268Z" fill="#00B9FF"/>
</svg>
